<?xml version="1.0" encoding="UTF-8" standalone="no"?>
<!-- Created with Inkscape (http://www.inkscape.org/) -->

<svg
   xmlns:dc="http://purl.org/dc/elements/1.1/"
   xmlns:cc="http://creativecommons.org/ns#"
   xmlns:rdf="http://www.w3.org/1999/02/22-rdf-syntax-ns#"
   xmlns:svg="http://www.w3.org/2000/svg"
   xmlns="http://www.w3.org/2000/svg"
   version="1.1"
   width="71.412064"
   height="50"
   viewBox="0 0 71.412065 50"
   id="Layer_1"
   xml:space="preserve"><metadata
     id="metadata33"><rdf:RDF><cc:Work
         rdf:about=""><dc:format>image/svg+xml</dc:format><dc:type
           rdf:resource="http://purl.org/dc/dcmitype/StillImage" /><dc:title></dc:title></cc:Work></rdf:RDF></metadata><defs
     id="defs31" /><style
     type="text/css"
     id="style3" /><g
     transform="scale(0.58823529,0.58823529)"
     id="g5"><path
       d="M 118.9,13.3 C 117.5,8.1 113.4,4 108.2,2.6 98.7,0 60.7,0 60.7,0 60.7,0 22.7,0 13.2,2.5 8.1,3.9 3.9,8.1 2.5,13.3 0,22.8 0,42.5 0,42.5 0,42.5 0,62.3 2.5,71.7 3.9,76.9 8,81 13.2,82.4 22.8,85 60.7,85 60.7,85 c 0,0 38,0 47.5,-2.5 5.2,-1.4 9.3,-5.5 10.7,-10.7 2.5,-9.5 2.5,-29.2 2.5,-29.2 0,0 0.1,-19.8 -2.5,-29.3 z"
       id="path7"
       style="fill:#ff0000;fill-opacity:1" /><polygon
       points="48.6,24.3 48.6,60.7 80.2,42.5 "
       id="polygon9"
       style="fill:#ffffff" /></g></svg>